# xmcd
#
# Track frame offsets: 
#        150
#        16369
#        27348
#        42328
#        52348
#        71554
#        87072
#        107336
#        122513
#        137639
#        155446
#        170676
#        188170
#        206263
#        224607
#        235590
#        247521
#        264455
#        276243
#        289858
#        307157
#
# Disc length: 4468 seconds
#
# Revision: 0
# Processed by: cddbd v1.5.2PL0 Copyright (c) Steve Scherf et al.
# Submitted via: ExactAudioCopy v0.99pb4
#
DISCID=2b117215
DTITLE=Various Artist - Radio 2 - Het Beste Uit De Explosieve 1000 - CD 3
DYEAR=2010
DGENRE=Pop
TTITLE0=The Beach Boys - Good Vibrations
TTITLE1=Linda Ronstadt - It's So Easy
TTITLE2=Falco - Rock Me Amadeus
TTITLE3=Cliff Richard - Do You Wanna Dance
TTITLE4=La Compagnie Créole - C'Est Bon Pour Le Moral
TTITLE5=Steppenwolf - Born To Be Wild
TTITLE6=Baccara - Yes Sir, I Can Boogie
TTITLE7=Kaiser Chiefs - Ruby
TTITLE8=Buurman - London Stansted
TTITLE9=Zucchero Sugar Fornaciari - Bacco Perbacco
TTITLE10=Albert Hammond - The Free Electric Band
TTITLE11=Ferre Grignard - Ring, Ring, I've Got To Sing
TTITLE12=Pat Benatar - Love Is A Battlefield
TTITLE13=Absynthe Minded - Envoi
TTITLE14=Boudewijn De Groot - Verdronken Vlinder
TTITLE15=Sir Douglas Quintet - Mendocino
TTITLE16=Daan - Exes
TTITLE17=Zjef Vanuytsel - Houten Kop
TTITLE18=Hadise - Düm Tek Tek
TTITLE19=Status Quo - Down, Down
TTITLE20=Barry White - Let The Music Play
EXTD=
EXTT0=
EXTT1=
EXTT2=
EXTT3=
EXTT4=
EXTT5=
EXTT6=
EXTT7=
EXTT8=
EXTT9=
EXTT10=
EXTT11=
EXTT12=
EXTT13=
EXTT14=
EXTT15=
EXTT16=
EXTT17=
EXTT18=
EXTT19=
EXTT20=
PLAYORDER=
